<?xml version="1.0" encoding="utf-8"?>
<!-- Generator: Adobe Illustrator 19.0.0, SVG Export Plug-In . SVG Version: 6.00 Build 0)  -->
<svg version="1.1" id="Capa_1" xmlns="http://www.w3.org/2000/svg" xmlns:xlink="http://www.w3.org/1999/xlink" x="0px" y="0px"
	 viewBox="0 0 41.1 41.1" style="enable-background:new 0 0 41.1 41.1;" xml:space="preserve">
<style type="text/css">
	.st0{fill:#3DB39E;}
	.st1{fill:#37A18E;}
	.st2{fill:#F5F5F5;}
	.st3{fill:#FFFFFF;}
	.st4{fill:#82CEE8;}
	.st5{fill:#A8DDEF;}
	.st6{fill:#EFC75E;}
	.st7{fill:#D7B354;}
	.st8{fill:#72B5CC;}
</style><g xmlns="http://www.w3.org/2000/svg" id="XMLID_43_">


	<path id="XMLID_11_" class="st2" d="M28.2,27.7l-2.1,2.1l7.9,7.9c0.7-0.6,1.4-1.3,2.1-2.1L28.2,27.7z"/>
	<path id="XMLID_10_" class="st3" d="M20,10.7c6,0,10.9,4.9,10.9,10.9c0,6-4.9,10.9-10.9,10.9S9.1,27.6,9.1,21.6   C9.1,15.5,13.9,10.7,20,10.7z"/>
	<path id="XMLID_9_" class="st4" d="M20,12.7c4.9,0,8.8,4,8.8,8.8s-4,8.8-8.8,8.8s-8.8-4-8.8-8.8S15.1,12.7,20,12.7z"/>
	<path id="XMLID_23_" class="st5" d="M15.7,23.6c-0.2-0.2-0.5-0.2-0.7,0c-0.2,0.2-0.2,0.5,0,0.7l2.2,2.2c0.2,0.2,0.5,0.2,0.7,0   c0.2-0.2,0.2-0.5,0-0.7L15.7,23.6z M20.4,25.4l-4.3-4.3c-0.2-0.2-0.5-0.2-0.7,0c-0.2,0.2-0.2,0.5,0,0.7l4.3,4.3   c0.2,0.2,0.5,0.2,0.7,0C20.6,25.9,20.6,25.6,20.4,25.4z"/>
	<path id="XMLID_5_" class="st6" d="M32.7,30.6c-0.8-0.8-2.2-0.8-3,0L29,31.4c-0.8,0.8-0.8,2.2,0,3l4.1,4.1c1.4-1.1,2.7-2.3,3.8-3.8   L32.7,30.6z"/>
	<path id="XMLID_13_" class="st7" d="M29.8,33.5c-0.8-0.8-0.8-2.1,0-3l0,0L29,31.4c-0.8,0.8-0.8,2.2,0,3l4.1,4.1   c0.3-0.2,0.6-0.5,0.9-0.7L29.8,33.5z"/>
	<path id="XMLID_15_" class="st8" d="M20,12.7c-2.8,0-5.2,1.3-6.8,3.2c1.5-1.3,3.5-2,5.6-2c4.9,0,8.8,4,8.8,8.8c0,2.1-0.8,4.1-2,5.6   c2-1.6,3.2-4.1,3.2-6.8C28.8,16.7,24.8,12.7,20,12.7z"/>
</g>
</svg>
