<?xml version="1.0" encoding="utf-8"?>
<!-- Generator: Adobe Illustrator 19.0.0, SVG Export Plug-In . SVG Version: 6.00 Build 0)  -->
<svg version="1.1" id="Capa_1" xmlns="http://www.w3.org/2000/svg" xmlns:xlink="http://www.w3.org/1999/xlink" x="0px" y="0px"
	 viewBox="0 0 41.1 41.1" style="enable-background:new 0 0 41.1 41.1;" xml:space="preserve">
<style type="text/css">
	.st0{fill:#3F51B5;}
	.st1{fill:#9FD661;}
	.st2{fill:#48C0EB;}
	.st3{fill:#CCD1D9;}
	.st4{fill:#FFCF47;}
	.st5{fill:#F5F7FA;}
	.st6{fill:#EF5362;}
</style><g xmlns="http://www.w3.org/2000/svg" id="XMLID_17_">

	<g id="XMLID_39_">
		<path id="XMLID_40_" class="st1" d="M28.5,21.8c0,0-17.3,0-18,0s-1.2,0.3-1.3,0.8c-0.7,2-2.3,7.2-2.5,7.6c-0.2,0.7,0.1,2.1,2,2.1    s12.2,0,12.2,0L28.5,21.8z"/>
	</g>
	<g id="XMLID_37_">
		<path id="XMLID_38_" class="st2" d="M20.5,26.4L7.2,31.8c0,0,0.5,0.5,1.4,0.5c0.8,0,17.3,0,23.8,0c1.8,0,2.1-1.4,1.9-2    C28.7,28.6,20.5,26.4,20.5,26.4z"/>
	</g>
	<g id="XMLID_33_">
		<path id="XMLID_36_" class="st3" d="M31.4,21.9l-10.2,4.2c0,0,10.6,3.7,13.3,4.6c0-0.2,0-0.4-0.1-0.6c-0.9-2.8-2.4-7.4-2.5-7.7    C31.8,22.1,31.4,21.9,31.4,21.9z"/>
	</g>
	<g id="XMLID_31_">
		<path id="XMLID_32_" class="st4" d="M7.2,31.8c0.4-0.2,20.9-8.5,24.2-9.8c-0.2-0.1-0.7-0.2-0.7-0.2h-2.2L6.7,30.2    C6.7,30.2,6.5,31.1,7.2,31.8z"/>
	</g>
	<g id="XMLID_29_">
		<path id="XMLID_30_" class="st5" d="M19.3,26.8c0,0,14.5,5,14.5,5c0.3-0.2,0.6-0.8,0.6-1.3c-0.4-0.1-13.2-4.5-13.2-4.5L19.3,26.8z    "/>
	</g>
	<g id="XMLID_22_">
		<path id="XMLID_24_" class="st6" d="M20.1,9.3c-3.1,0-5.6,2.5-5.6,5.6c0,1.5,1.5,3.9,2.8,6.1c1.5,2.5,2.8,4.7,2.8,4.7    s1.6-2.7,3.2-5.6c1.1-2,2.4-4,2.4-5.2C25.7,11.8,23.2,9.3,20.1,9.3z M20.1,16.7c-0.8,0-1.5-0.7-1.5-1.5c0-0.8,0.7-1.5,1.5-1.5    s1.5,0.7,1.5,1.5C21.6,16,20.9,16.7,20.1,16.7z"/>
	</g>
</g>
</svg>
