<?xml version="1.0" encoding="utf-8"?>
<!-- Generator: Adobe Illustrator 19.0.0, SVG Export Plug-In . SVG Version: 6.00 Build 0)  -->
<svg version="1.1" id="Capa_1" xmlns="http://www.w3.org/2000/svg" xmlns:xlink="http://www.w3.org/1999/xlink" x="0px" y="0px"
	 viewBox="0 0 40 40" style="enable-background:new 0 0 40 40;" xml:space="preserve">
<style type="text/css">
	.st0{fill:#1094BC;}
	.st1{fill:#40A9C9;}
	.st2{fill:#BDBDBD;}
	.st3{fill:#EEEEEE;}
	.st4{fill:#E0E0E0;}
</style>
<g xmlns="http://www.w3.org/2000/svg" id="XMLID_51_">


	<path id="XMLID_34_" class="st2" d="M28,27.7c-1.6,0-3.3,0-4.9,0c-0.6,0-0.9-0.2-0.9-0.8c-0.2-2.4,0.6-4.4,2.7-5.7   c2.1-1.3,4.3-1.3,6.4,0c2,1.3,2.9,3.2,2.7,5.6c0,0.6-0.3,0.9-1,0.9C31.3,27.6,29.7,27.7,28,27.7C28,27.7,28,27.7,28,27.7z"/>
	<path id="XMLID_28_" class="st3" d="M6.1,26.9c-0.2-3.2,1.3-5.3,4.3-6.5c2.3-0.4,4.3,0,5.9,1.8c1.2,1.4,1.7,3,1.5,4.8   c-0.1,0.6-0.2,0.8-0.9,0.8c-3.3,0-6.5,0-9.8,0C6.4,27.7,6.1,27.5,6.1,26.9z"/>
	<path id="XMLID_26_" class="st2" d="M28,19.8c-2.1,0-3.8-1.7-3.8-3.8c0-2,1.7-3.7,3.7-3.7c2,0,3.8,1.7,3.8,3.7   C31.8,18,30.1,19.8,28,19.8z"/>
	<path id="XMLID_21_" class="st3" d="M11.5,19.8c-1.5-0.3-2.6-1.1-3.1-2.5c-0.6-1.6,0-3.3,1.4-4.3c1.4-1,3.2-0.9,4.5,0.2   c0.2,0.2,0.4,0.4,0.6,0.6c1.3,2.5,0.6,4.9-1.7,5.8C12.6,19.7,12.1,19.8,11.5,19.8z"/>
	<g id="XMLID_52_">
		<path id="XMLID_48_" class="st4" d="M14.8,27c-0.2-2.8,1.1-4.6,3.7-5.5c1.9-0.3,3.7,0,5,1.5c1.1,1.2,1.5,2.5,1.3,4.1    c-0.1,0.5-0.2,0.7-0.7,0.7c-2.8,0-5.6,0-8.4,0C15.1,27.7,14.8,27.6,14.8,27z"/>
		<path id="XMLID_49_" class="st4" d="M19.4,21c-1.3-0.3-2.2-0.9-2.7-2.2c-0.5-1.4,0-2.8,1.2-3.7c1.2-0.8,2.7-0.7,3.9,0.2    c0.2,0.2,0.3,0.3,0.5,0.5c1.1,2.1,0.5,4.2-1.5,4.9C20.4,20.9,19.9,21,19.4,21z"/>
	</g>
</g>
</svg>
