<?xml version="1.0" encoding="utf-8"?>
<!-- Generator: Adobe Illustrator 19.0.0, SVG Export Plug-In . SVG Version: 6.00 Build 0)  -->
<svg version="1.1" id="Capa_1" xmlns="http://www.w3.org/2000/svg" xmlns:xlink="http://www.w3.org/1999/xlink" x="0px" y="0px"
	 viewBox="0 0 40 40" style="enable-background:new 0 0 40 40;" xml:space="preserve">
<style type="text/css">
	.st0{fill:#1094BC;}
	.st1{fill:#40A9C9;}
	.st2{fill:#BDBDBD;}
	.st3{fill:#EEEEEE;}
	.st4{fill:#E0E0E0;}
</style>
<g id="XMLID_51_">
	<path id="XMLID_44_" class="st0" d="M24.3,0.5c3.5,0.6,6.5,2.3,9.1,4.6c6.3,5.8,8.2,14.4,5.1,22.3c-4.7,12-20,16.4-30.3,8.7
		c-2-1.5-3.8-3.3-5.1-5.5c0.7-1.3,1.5-2.4,2.4-3.5c0.2-0.3,0.5-0.4,0.8-0.1c0.3,0.4,0.7,0.4,1.2,0.4c3.1,0,6.2-0.1,9.4,0.1
		c0.5,0,0.6-0.2,0.7-0.6c0.5-3.3-2.5-6.6-5.9-6.3c-0.4,0-0.8,0.2-1.2,0c-0.1-0.8,0.5-0.8,1-0.9c2.3,0,3.6-1,4-3
		c0.1-0.6,0-1.2-0.2-1.8c-0.1-0.3-0.3-0.6-0.3-1c0.6-1.4,1.7-2.6,2.6-3.9c1.9-2.8,3.8-5.6,5.8-8.3C23.5,1.1,23.6,0.5,24.3,0.5z"/>
	<path id="XMLID_35_" class="st1" d="M6.1,26.9c-0.9,0.6-1.3,1.7-2,2.5c-0.3,0.4-0.5,0.9-1,1.2c-1.7-2.4-2.6-5.1-2.9-8
		C-0.5,17,0.9,11.9,4.4,7.4c3.5-4.3,7.9-6.7,13.4-7.3C20-0.1,22.2,0,24.3,0.5c-1.6,2-3,4.2-4.5,6.3c-1.6,2.3-3.2,4.6-4.9,6.9
		c-0.5,0-0.8-0.4-1.2-0.7c-1.4-0.8-2.8-0.7-4,0.2c-1.1,0.9-1.6,2.4-1.2,3.7c0.4,1.1,1,1.9,2.1,2.3c0.3,0.1,0.7,0.1,0.8,0.5
		c-0.5,0-0.9,0.1-1.2,0.6c0,0.4-0.3,0.4-0.5,0.5c-2.2,1-3.4,2.7-3.5,5.1C6.3,26.3,6.3,26.6,6.1,26.9z"/>
	<path id="XMLID_34_" class="st2" d="M28,27.7c-1.6,0-3.3,0-4.9,0c-0.6,0-0.9-0.2-0.9-0.8c-0.2-2.4,0.6-4.4,2.7-5.7
		c2.1-1.3,4.3-1.3,6.4,0c2,1.3,2.9,3.2,2.7,5.6c0,0.6-0.3,0.9-1,0.9C31.3,27.6,29.7,27.7,28,27.7C28,27.7,28,27.7,28,27.7z"/>
	<path id="XMLID_28_" class="st3" d="M6.1,26.9c-0.2-3.2,1.3-5.3,4.3-6.5c2.3-0.4,4.3,0,5.9,1.8c1.2,1.4,1.7,3,1.5,4.8
		c-0.1,0.6-0.2,0.8-0.9,0.8c-3.3,0-6.5,0-9.8,0C6.4,27.7,6.1,27.5,6.1,26.9z"/>
	<path id="XMLID_26_" class="st2" d="M28,19.8c-2.1,0-3.8-1.7-3.8-3.8c0-2,1.7-3.7,3.7-3.7c2,0,3.8,1.7,3.8,3.7
		C31.8,18,30.1,19.8,28,19.8z"/>
	<path id="XMLID_21_" class="st3" d="M11.5,19.8c-1.5-0.3-2.6-1.1-3.1-2.5c-0.6-1.6,0-3.3,1.4-4.3c1.4-1,3.2-0.9,4.5,0.2
		c0.2,0.2,0.4,0.4,0.6,0.6c1.3,2.5,0.6,4.9-1.7,5.8C12.6,19.7,12.1,19.8,11.5,19.8z"/>
	<g id="XMLID_52_">
		<path id="XMLID_48_" class="st4" d="M14.8,27c-0.2-2.8,1.1-4.6,3.7-5.5c1.9-0.3,3.7,0,5,1.5c1.1,1.2,1.5,2.5,1.3,4.1
			c-0.1,0.5-0.2,0.7-0.7,0.7c-2.8,0-5.6,0-8.4,0C15.1,27.7,14.8,27.6,14.8,27z"/>
		<path id="XMLID_49_" class="st4" d="M19.4,21c-1.3-0.3-2.2-0.9-2.7-2.2c-0.5-1.4,0-2.8,1.2-3.7c1.2-0.8,2.7-0.7,3.9,0.2
			c0.2,0.2,0.3,0.3,0.5,0.5c1.1,2.1,0.5,4.2-1.5,4.9C20.4,20.9,19.9,21,19.4,21z"/>
	</g>
</g>
</svg>
